<?xml version="1.0" encoding="UTF-8"?>
<svg width="145px" height="145px" viewBox="0 0 145 145" version="1.1" xmlns="http://www.w3.org/2000/svg" xmlns:xlink="http://www.w3.org/1999/xlink">
    <!-- Generator: Sketch 63.1 (92452) - https://sketch.com -->
    <title>群組copycopycopycopy</title>
    <desc>Created with Sketch.</desc>
    <defs>
        <polygon id="path-1" points="0.0002 0.769 128.781 0.769 128.781 106 0.0002 106"></polygon>
    </defs>
    <g id="page-1" stroke="none" stroke-width="1" fill="none" fill-rule="evenodd">
        <g id="00_index_acopy" transform="translate(-621.000000, -1203.000000)">
            <g id="群組" transform="translate(629.000000, 1222.000000)">
                <path d="M33.5908,52.8687 C35.0308,51.7037 36.8528,50.9757 38.8668,50.9327 L40.6668,34.2387 C39.1058,34.1177 37.6498,33.6347 36.4098,32.8237 L26.1738,41.3237 C26.4698,41.9587 26.6438,42.6587 26.6438,43.4007 C26.6438,44.3477 26.3588,45.2227 25.8918,45.9807 L33.5908,52.8687 Z" id="Fill-1" fill="#529B34"></path>
                <path d="M42.3701,80.9048 C42.3701,80.8368 42.3891,80.7738 42.3911,80.7058 L27.4511,77.0858 C27.1681,77.6368 26.7931,78.1328 26.3321,78.5488 L36.1241,92.9358 C36.5531,92.7988 36.9991,92.7038 37.4731,92.7038 C38.1541,92.7038 38.7941,92.8698 39.3731,93.1458 L44.4581,85.2108 C43.1911,84.1708 42.3701,82.6378 42.3701,80.9048" id="Fill-3" fill="#529B34"></path>
                <path d="M30.4961,59.1905 C30.4961,57.4005 31.0971,55.7555 32.0961,54.4015 L24.4201,47.5345 C23.9041,47.8875 23.3181,48.1435 22.6881,48.2975 L23.6251,69.8675 C24.3711,69.9865 25.0661,70.2445 25.6711,70.6345 L32.3671,64.2985 C31.2131,62.8875 30.4961,61.1285 30.4961,59.1905" id="Fill-5" fill="#529B34"></path>
                <path d="M79.5186,45.9859 C79.5186,46.2919 79.4956,46.5909 79.4726,46.8919 L98.4936,49.3879 C98.7146,46.1939 100.2336,43.3869 102.5476,41.4549 L86.6876,21.8439 C85.3256,23.2599 83.4206,24.1489 81.3006,24.1489 C80.6356,24.1489 80.0026,24.0349 79.3896,23.8719 L73.8266,35.8739 C77.2356,37.9559 79.5186,41.6989 79.5186,45.9859" id="Fill-7" fill="#529B34"></path>
                <path d="M67.6641,34.1314 C69.1611,34.1314 70.5881,34.4214 71.9071,34.9274 L77.4191,23.0354 C76.6191,22.5474 75.9251,21.9154 75.3591,21.1714 L50.3541,24.1524 C50.3961,24.5064 50.4611,24.8534 50.4611,25.2184 C50.4611,26.9274 49.9611,28.5084 49.1411,29.8744 L59.1551,37.7424 C61.3101,35.5194 64.3231,34.1314 67.6641,34.1314" id="Fill-9" fill="#529B34"></path>
                <path d="M46.189,54.6368 L56.445,49.7928 C56.04,48.5958 55.809,47.3198 55.809,45.9858 C55.809,43.5498 56.546,41.2868 57.806,39.4038 L47.852,31.5828 C46.526,32.9328 44.778,33.8468 42.826,34.1628 L40.995,51.1488 C43.155,51.6348 45.002,52.8998 46.189,54.6368" id="Fill-11" fill="#529B34"></path>
                <path d="M56.3706,65.4009 L61.7526,56.2519 C59.8956,55.1799 58.3546,53.6239 57.3086,51.7499 L47.1266,56.5599 C47.4156,57.3909 47.6096,58.2649 47.6096,59.1909 C47.6096,60.0459 47.4366,60.8539 47.1876,61.6299 L56.3706,65.4009 Z" id="Fill-13" fill="#529B34"></path>
                <path d="M57.2739,68.0855 L52.1839,76.7385 C53.1009,77.5525 53.7519,78.6345 53.9879,79.8665 L74.2489,77.6205 C74.2439,77.5015 74.2149,77.3905 74.2149,77.2715 C74.2149,76.5375 74.3159,75.8315 74.4689,75.1465 L57.2739,68.0855 Z" id="Fill-15" fill="#529B34"></path>
                <path d="M98.5527,51.5542 L79.1157,49.0022 C78.3307,51.9872 76.4187,54.5062 73.8537,56.0822 L79.9797,68.5612 C80.9877,68.1562 82.0727,67.9122 83.2167,67.9122 C85.7977,67.9122 88.1087,69.0552 89.7497,70.8642 L103.4727,59.6512 C100.7867,57.8482 98.9637,54.9202 98.5527,51.5542" id="Fill-17" fill="#529B34"></path>
                <g transform="translate(0.000000, 0.231000)">
                    <mask id="mask-2" fill="white">
                        <use xlink:href="#path-1"></use>
                    </mask>
                    <g id="Clip-20"></g>
                    <path d="M109.8232,61.353 C108.3022,61.353 106.8552,61.042 105.5282,60.502 L90.9842,72.386 C91.7492,73.762 92.2192,75.337 92.2192,77.04 C92.2192,82.208 88.1892,86.399 83.2172,86.399 C79.0722,86.399 75.6172,83.47 74.5712,79.506 L53.9802,81.79 C53.4442,84.387 51.0762,86.345 48.2332,86.345 C47.5652,86.345 46.9342,86.214 46.3362,86.015 L41.0362,94.285 C41.6162,95.057 41.9742,96.01 41.9742,97.057 C41.9742,99.588 39.9592,101.64 37.4722,101.64 C34.9862,101.64 32.9702,99.588 32.9702,97.057 C32.9702,95.79 33.4752,94.643 34.2912,93.813 L24.4752,79.39 C23.9382,79.57 23.3702,79.687 22.7702,79.687 C19.8772,79.687 17.5312,77.419 17.5312,74.62 C17.5312,72.252 19.2182,70.28 21.4872,69.724 L20.5502,48.154 C18.0662,47.757 16.1652,45.686 16.1652,43.17 C16.1652,40.372 18.5112,38.103 21.4052,38.103 C22.7392,38.103 23.9442,38.601 24.8692,39.395 L34.7532,31.188 C33.2292,29.562 32.2792,27.392 32.2792,24.987 C32.2792,19.966 36.3492,15.896 41.3702,15.896 C45.2742,15.896 48.5762,18.37 49.8642,21.825 L74.2692,18.916 C73.9922,18.135 73.8132,17.307 73.8132,16.431 C73.8132,12.296 77.1662,8.944 81.3012,8.944 C85.4352,8.944 88.7882,12.296 88.7882,16.431 C88.7882,17.644 88.4722,18.772 87.9602,19.786 L104.3172,40.01 C105.9562,39.099 107.8142,38.535 109.8232,38.535 C116.1242,38.535 121.2312,43.643 121.2312,49.944 C121.2312,56.245 116.1242,61.353 109.8232,61.353 L109.8232,61.353 Z M66.0062,0.769 C29.5522,0.769 0.0002,30.321 0.0002,66.775 L0.0002,106 L62.7762,106 C99.2292,106 128.7812,76.448 128.7812,39.994 L128.7812,0.769 L66.0062,0.769 Z" id="Fill-19" fill="#8EC31F" mask="url(#mask-2)"></path>
                </g>
                <path d="M46.2856,63.5723 C45.4926,64.7953 44.3756,65.7813 43.0546,66.4643 L46.7476,75.4403 C47.2246,75.3193 47.7166,75.2343 48.2326,75.2343 C48.9826,75.2343 49.6936,75.3833 50.3526,75.6313 L55.2746,67.2643 L46.2856,63.5723 Z" id="Fill-21" fill="#529B34"></path>
                <path d="M39.0527,67.4664 C37.1177,67.4664 35.3527,66.8224 33.9197,65.7754 L27.1867,72.1464 C27.7007,72.9304 28.0097,73.8544 28.0097,74.8514 C28.0097,74.9084 27.9937,74.9604 27.9917,75.0164 L42.8727,78.6224 C43.2937,77.6994 43.9647,76.9144 44.7987,76.3274 L41.0507,67.2164 C40.4067,67.3664 39.7437,67.4664 39.0527,67.4664" id="Fill-23" fill="#529B34"></path>
                <path d="M67.6641,57.8404 C66.2741,57.8404 64.9461,57.5894 63.7071,57.1494 L58.3701,66.2224 L75.1841,73.1274 C75.8631,71.7074 76.8541,70.4814 78.0991,69.5834 L71.9371,57.0334 C70.6101,57.5474 69.1731,57.8404 67.6641,57.8404" id="Fill-25" fill="#529B34"></path>
            </g>
        </g>
    </g>
</svg>